<svg viewBox="0 0 72 24" fill="none" xmlns="http://www.w3.org/2000/svg"><path d="M7.173 20a3.145 3.145 0 0 1-2.485-1.224 3.148 3.148 0 0 1-.173-3.69L10.486 5.8A3.905 3.905 0 0 1 13.78 4c1.338 0 2.57.671 3.295 1.795l7.3 11.33a.79.79 0 0 0 .671.366.787.787 0 0 0 .671-.366l.087-.136 2.137-3.32.232-.36c.023-.037.071-.112-.01-.216-.081-.105-.165-.075-.206-.061l-2.934 1.01a1.249 1.249 0 1 1-.813-2.362l2.934-1.01a2.652 2.652 0 0 1 2.983.881c.716.913.773 2.133.145 3.109l-.231.36-2.137 3.32-.087.136a3.285 3.285 0 0 1-2.77 1.513 3.28 3.28 0 0 1-2.77-1.51l-7.3-11.33c-.268-.413-.702-.65-1.194-.65h-.001c-.492 0-.928.237-1.193.652l-5.972 9.288a.658.658 0 0 0 .038.795.66.66 0 0 0 .764.225l9.467-3.257a1.249 1.249 0 1 1 .814 2.361l-9.467 3.258c-.351.12-.708.179-1.059.179Z" fill="url('#paint0_linear_16_72')"/><path fill-rule="evenodd" clip-rule="evenodd" d="m59.25 13.531-2.672 3.675a.5.5 0 0 0 .404.794H59l1.75-2.406-1.5-2.063Zm2.25 1.031L63 12.5l-1.5-2.063L60 12.5l1.5 2.063Zm4.922-6.768A.5.5 0 0 0 66.018 7H64l-1.75 2.406 1.5 2.063 2.672-3.675Z" fill="url('#paint1_linear_16_72')"/><path fill-rule="evenodd" clip-rule="evenodd" d="M35 8v9.5a.5.5 0 0 0 .5.5H37a.5.5 0 0 0 .5-.5v-6.375l5 6.875h2a.5.5 0 0 0 .5-.5v-10a.5.5 0 0 0-.5-.5H43a.5.5 0 0 0-.5.5v6.375L37.5 7h-2a.5.5 0 0 0-.5.5V8Zm21.982-1a.5.5 0 0 0-.404.794L64 18h2.018a.5.5 0 0 0 .404-.794L59 7h-2.018Zm-9.98.449A.5.5 0 0 1 47.5 7h7a.5.5 0 0 1 .5.5V9a.5.5 0 0 1-.5.5h-5v1.75h5a.5.5 0 0 1 .5.5v1.5a.5.5 0 0 1-.5.5h-5v1.75h5a.5.5 0 0 1 .5.5v1.5a.5.5 0 0 1-.5.5h-7a.5.5 0 0 1-.5-.5v-10c0-.017 0-.034.003-.051Z" fill="#443E38"/><defs><linearGradient id="paint0_linear_16_72" x1="17.353" y1="4" x2="17.353" y2="20" gradientUnits="userSpaceOnUse"><stop stop-color="#FEEA4D"/><stop offset="1" stop-color="#FF4491"/></linearGradient><linearGradient id="paint1_linear_16_72" x1="57.683" y1="18" x2="67.237" y2="7.443" gradientUnits="userSpaceOnUse"><stop offset=".282" stop-color="#443E38"/><stop offset=".697" stop-color="#FF558B"/><stop offset="1" stop-color="#FFE351" stop-opacity=".6"/></linearGradient></defs></svg>