<svg width="20" height="20" fill="none" xmlns="http://www.w3.org/2000/svg"><g clip-path="url('#clip0_13_79')"><path d="M10.2 8.57V12h5.671c-.23 1.473-1.715 4.313-5.672 4.313C6.785 16.313 4 13.483 4 10c0-3.484 2.785-6.313 6.2-6.313 1.94 0 3.242.829 3.984 1.544l2.715-2.613C15.156.985 12.899 0 10.199 0 4.672 0 .2 4.473.2 10s4.473 10 10 10c5.77 0 9.602-4.059 9.602-9.77 0-.656-.07-1.156-.156-1.656l-9.446-.003Z" fill="#fff"/></g><defs><clipPath id="clip0_13_79"><path fill="#fff" d="M0 0h20v20H0z"/></clipPath></defs></svg>